<?xml version="1.0" encoding="UTF-8"?>
<svg xmlns="http://www.w3.org/2000/svg" xmlns:xlink="http://www.w3.org/1999/xlink" width="880" height="886">
  <defs>
    <linearGradient id="home-a" x1="50%" x2="50%" y1="0%" y2="100%">
      <stop offset="0%" stop-color="#FCCA93"/>
      <stop offset="100%" stop-color="#FB782A"/>
    </linearGradient>
    <linearGradient id="home-b" x1="50%" x2="50%" y1="0%" y2="100%">
      <stop offset="0%" stop-color="#FFB1AA"/>
      <stop offset="100%" stop-color="#FFBDBB"/>
    </linearGradient>
    <linearGradient id="home-c" x1="50%" x2="50%" y1="0%" y2="100%">
      <stop offset="0%" stop-color="#FCCA93"/>
      <stop offset="100%" stop-color="#FB782A"/>
    </linearGradient>
    <linearGradient id="home-d" x1="50%" x2="50%" y1="0%" y2="100%">
      <stop offset="0%" stop-color="#FFB1AA"/>
      <stop offset="100%" stop-color="#FFBDBB"/>
    </linearGradient>
    <linearGradient id="home-e" x1="50%" x2="50%" y1="22.74%" y2="114.728%">
      <stop offset="0%" stop-color="#FF6A55"/>
      <stop offset="100%" stop-color="#EC1E21"/>
    </linearGradient>
    <linearGradient id="home-f" x1="50%" x2="50%" y1="22.74%" y2="114.728%">
      <stop offset="0%" stop-color="#FF6A55"/>
      <stop offset="100%" stop-color="#EC1E21"/>
    </linearGradient>
    <linearGradient id="home-g" x1="50%" x2="50%" y1="22.74%" y2="114.728%">
      <stop offset="0%" stop-color="#FF6A55"/>
      <stop offset="100%" stop-color="#EC1E21"/>
    </linearGradient>
    <linearGradient id="home-h" x1="50%" x2="50%" y1="22.74%" y2="114.728%">
      <stop offset="0%" stop-color="#FF6A55"/>
      <stop offset="100%" stop-color="#EC1E21"/>
    </linearGradient>
    <linearGradient id="home-i" x1="50%" x2="50%" y1="22.74%" y2="114.728%">
      <stop offset="0%" stop-color="#FF6A55"/>
      <stop offset="100%" stop-color="#EC1E21"/>
    </linearGradient>
    <linearGradient id="home-j" x1="50%" x2="50%" y1="22.74%" y2="114.728%">
      <stop offset="0%" stop-color="#FF6A55"/>
      <stop offset="100%" stop-color="#EC1E21"/>
    </linearGradient>
    <linearGradient id="home-k" x1="50%" x2="50%" y1="22.74%" y2="114.728%">
      <stop offset="0%" stop-color="#FF6A55"/>
      <stop offset="100%" stop-color="#EC1E21"/>
    </linearGradient>
    <linearGradient id="home-l" x1="50%" x2="50%" y1="0%" y2="100%">
      <stop offset="0%" stop-color="#FCCA93"/>
      <stop offset="100%" stop-color="#FB782A"/>
    </linearGradient>
    <linearGradient id="home-m" x1="50%" x2="50%" y1="22.74%" y2="114.728%">
      <stop offset="0%" stop-color="#FF6A55"/>
      <stop offset="100%" stop-color="#EC1E21"/>
    </linearGradient>
    <linearGradient id="home-n" x1="50%" x2="50%" y1="0%" y2="100%">
      <stop offset="0%" stop-color="#FCCA93"/>
      <stop offset="100%" stop-color="#FB782A"/>
    </linearGradient>
    <linearGradient id="home-o" x1="50%" x2="50%" y1="0%" y2="100%">
      <stop offset="0%" stop-color="#FCCA93"/>
      <stop offset="100%" stop-color="#FB782A"/>
    </linearGradient>
    <linearGradient id="home-p" x1="50%" x2="50%" y1="0%" y2="100%">
      <stop offset="0%" stop-color="#FCCA93"/>
      <stop offset="100%" stop-color="#FB782A"/>
    </linearGradient>
    <linearGradient id="home-q" x1="50%" x2="50%" y1="0%" y2="100%">
      <stop offset="0%" stop-color="#FCCA93"/>
      <stop offset="100%" stop-color="#FB782A"/>
    </linearGradient>
    <linearGradient id="home-r" x1="50%" x2="50%" y1="0%" y2="100%">
      <stop offset="0%" stop-color="#FCCA93"/>
      <stop offset="100%" stop-color="#FB782A"/>
    </linearGradient>
    <linearGradient id="home-s" x1="50%" x2="50%" y1="0%" y2="100%">
      <stop offset="0%" stop-color="#FCCA93"/>
      <stop offset="100%" stop-color="#FB782A"/>
    </linearGradient>
    <linearGradient id="home-t" x1="50%" x2="50%" y1="1.438%" y2="99.192%">
      <stop offset="0%" stop-color="#F3BA7A"/>
      <stop offset="100%" stop-color="#E86F26"/>
    </linearGradient>
    <linearGradient id="home-u" x1="50%" x2="50%" y1="0%" y2="100%">
      <stop offset="0%" stop-color="#FCCA93"/>
      <stop offset="100%" stop-color="#FB782A"/>
    </linearGradient>
    <linearGradient id="home-v" x1="50%" x2="50%" y1="0%" y2="100%">
      <stop offset="0%" stop-color="#FFB1AA"/>
      <stop offset="100%" stop-color="#FFBDBB"/>
    </linearGradient>
    <linearGradient id="home-w" x1="50%" x2="50%" y1="0%" y2="100%">
      <stop offset="0%" stop-color="#FCCA93"/>
      <stop offset="100%" stop-color="#FB782A"/>
    </linearGradient>
    <linearGradient id="home-x" x1="50%" x2="50%" y1="22.74%" y2="114.728%">
      <stop offset="0%" stop-color="#FF6A55"/>
      <stop offset="100%" stop-color="#EC1E21"/>
    </linearGradient>
    <linearGradient id="home-y" x1="50%" x2="50%" y1="0%" y2="100%">
      <stop offset="0%" stop-color="#FFB1AA"/>
      <stop offset="100%" stop-color="#FFBDBB"/>
    </linearGradient>
    <linearGradient id="home-z" x1="50%" x2="50%" y1="0%" y2="100%">
      <stop offset="0%" stop-color="#FFB1AA"/>
      <stop offset="100%" stop-color="#FFBDBB"/>
    </linearGradient>
    <linearGradient id="home-A" x1="50%" x2="50%" y1="22.74%" y2="114.728%">
      <stop offset="0%" stop-color="#FF6A55"/>
      <stop offset="100%" stop-color="#EC1E21"/>
    </linearGradient>
    <linearGradient id="home-B" x1="50%" x2="50%" y1="22.74%" y2="114.728%">
      <stop offset="0%" stop-color="#FF6A55"/>
      <stop offset="100%" stop-color="#EC1E21"/>
    </linearGradient>
    <linearGradient id="home-C" x1="50%" x2="50%" y1="22.74%" y2="114.728%">
      <stop offset="0%" stop-color="#FF6A55"/>
      <stop offset="100%" stop-color="#EC1E21"/>
    </linearGradient>
    <linearGradient id="home-D" x1="50%" x2="50%" y1="22.74%" y2="114.728%">
      <stop offset="0%" stop-color="#FF6A55"/>
      <stop offset="100%" stop-color="#EC1E21"/>
    </linearGradient>
    <linearGradient id="home-E" x1="50%" x2="50%" y1="0%" y2="100%">
      <stop offset="0%" stop-color="#FCCA93"/>
      <stop offset="100%" stop-color="#FB782A"/>
    </linearGradient>
    <linearGradient id="home-F" x1="50%" x2="50%" y1="0%" y2="100%">
      <stop offset="0%" stop-color="#FCCA93"/>
      <stop offset="100%" stop-color="#FB782A"/>
    </linearGradient>
    <linearGradient id="home-G" x1="50%" x2="50%" y1="22.74%" y2="114.728%">
      <stop offset="0%" stop-color="#FF6A55"/>
      <stop offset="100%" stop-color="#EC1E21"/>
    </linearGradient>
    <linearGradient id="home-H" x1="50%" x2="50%" y1="0%" y2="100%">
      <stop offset="0%" stop-color="#FFB1AA"/>
      <stop offset="100%" stop-color="#FFBDBB"/>
    </linearGradient>
    <linearGradient id="home-I" x1="50%" x2="50%" y1="0%" y2="100%">
      <stop offset="0%" stop-color="#FCCA93"/>
      <stop offset="100%" stop-color="#FB782A"/>
    </linearGradient>
    <linearGradient id="home-J" x1="50%" x2="50%" y1="0%" y2="100%">
      <stop offset="0%" stop-color="#FCCA93"/>
      <stop offset="100%" stop-color="#FB782A"/>
    </linearGradient>
    <path id="home-K" d="M.338 5.794S14.37-2.568 32.515 2.202l.725 3.604-21.33 1.102L.339 5.794z"/>
    <linearGradient id="home-M" x1="50%" x2="50%" y1="0%" y2="100%">
      <stop offset="0%" stop-color="#FFB1AA"/>
      <stop offset="100%" stop-color="#FFBDBB"/>
    </linearGradient>
    <linearGradient id="home-N" x1="50%" x2="50%" y1="22.74%" y2="114.728%">
      <stop offset="0%" stop-color="#FF6A55"/>
      <stop offset="100%" stop-color="#EC1E21"/>
    </linearGradient>
    <linearGradient id="home-O" x1="50%" x2="50%" y1="22.74%" y2="114.728%">
      <stop offset="0%" stop-color="#FF6A55"/>
      <stop offset="100%" stop-color="#EC1E21"/>
    </linearGradient>
    <linearGradient id="home-P" x1="50%" x2="50%" y1="22.74%" y2="114.728%">
      <stop offset="0%" stop-color="#FF6A55"/>
      <stop offset="100%" stop-color="#EC1E21"/>
    </linearGradient>
    <linearGradient id="home-Q" x1="50%" x2="50%" y1="22.74%" y2="114.728%">
      <stop offset="0%" stop-color="#FF6A55"/>
      <stop offset="100%" stop-color="#EC1E21"/>
    </linearGradient>
    <linearGradient id="home-R" x1="50%" x2="50%" y1="22.74%" y2="114.728%">
      <stop offset="0%" stop-color="#FF6A55"/>
      <stop offset="100%" stop-color="#EC1E21"/>
    </linearGradient>
    <linearGradient id="home-S" x1="50%" x2="50%" y1="22.74%" y2="114.728%">
      <stop offset="0%" stop-color="#FF6A55"/>
      <stop offset="100%" stop-color="#EC1E21"/>
    </linearGradient>
    <linearGradient id="home-T" x1="50%" x2="50%" y1="0%" y2="100%">
      <stop offset="0%" stop-color="#FCCA93"/>
      <stop offset="100%" stop-color="#FB782A"/>
    </linearGradient>
    <linearGradient id="home-U" x1="50%" x2="50%" y1="22.74%" y2="114.728%">
      <stop offset="0%" stop-color="#FF6A55"/>
      <stop offset="100%" stop-color="#EC1E21"/>
    </linearGradient>
    <linearGradient id="home-V" x1="50%" x2="50%" y1="22.74%" y2="114.728%">
      <stop offset="0%" stop-color="#FF6A55"/>
      <stop offset="100%" stop-color="#EC1E21"/>
    </linearGradient>
    <linearGradient id="home-W" x1="50%" x2="50%" y1="22.74%" y2="114.728%">
      <stop offset="0%" stop-color="#FF6A55"/>
      <stop offset="100%" stop-color="#EC1E21"/>
    </linearGradient>
    <linearGradient id="home-X" x1="50%" x2="50%" y1="22.74%" y2="114.728%">
      <stop offset="0%" stop-color="#FF6A55"/>
      <stop offset="100%" stop-color="#EC1E21"/>
    </linearGradient>
    <linearGradient id="home-Y" x1="50%" x2="50%" y1="0%" y2="100%">
      <stop offset="0%" stop-color="#FFB1AA"/>
      <stop offset="100%" stop-color="#FFBDBB"/>
    </linearGradient>
    <linearGradient id="home-Z" x1="50%" x2="50%" y1="0%" y2="100%">
      <stop offset="0%" stop-color="#FFB1AA"/>
      <stop offset="100%" stop-color="#FFBDBB"/>
    </linearGradient>
    <linearGradient id="home-aa" x1="50%" x2="50%" y1="22.74%" y2="114.728%">
      <stop offset="0%" stop-color="#FF6A55"/>
      <stop offset="100%" stop-color="#EC1E21"/>
    </linearGradient>
    <linearGradient id="home-ab" x1="50%" x2="50%" y1="22.74%" y2="114.728%">
      <stop offset="0%" stop-color="#FF6A55"/>
      <stop offset="100%" stop-color="#EC1E21"/>
    </linearGradient>
  </defs>
  <g fill="none" fill-rule="evenodd">
    <path stroke="#FE6451" stroke-dasharray="8" stroke-linecap="round" stroke-linejoin="round" stroke-width="1.5" d="M179.93 839.86c98.82 0 178.93-80.11 178.93-178.93 0-98.82-80.11-178.93-178.93-178.93C81.11 482 1 562.11 1 660.93c0 98.82 80.11 178.93 178.93 178.93zm555-220c79.49 0 143.93-64.44 143.93-143.93 0-79.49-64.44-143.93-143.93-143.93C655.44 332 591 396.44 591 475.93c0 79.49 64.44 143.93 143.93 143.93z"/>
    <g transform="translate(653.276 -.697)">
      <path fill="#EA9C9F" d="M83.752 84.801s-9.603 25.613-16.535 33.337c-10.519-13.165-13.974-30.793-13.974-30.793l-14.433 2.99s3.356 43.486 31.189 56.384c20.972-7.696 27.116-34.37 27.116-34.37L83.752 84.802z"/>
      <path fill="#D5787C" d="M72.426 145.65L82.86 89.198l2.256-1.583L90.94 99.62c.142 1.057.293 2.18.46 3.395 1.156 8.57.495 17.502-.514 24.555-3.843 6.77-9.757 14.058-18.46 18.082"/>
      <path fill="url(#home-a)" d="M37.582 12.709C35.398 1.994 22.437.557 14.637.687c-.556 1.591-1.2 3.162-2.003 4.688-1.818 5.594-4.93 10.433-9.327 14.52-.753.81-1.556 1.526-2.357 2.244l14.394 20.043 10.94 9.032 7.58-4.175c17.876-22.51 3.718-34.33 3.718-34.33" transform="translate(88 6)"/>
      <path fill="#FFCDA9" d="M87.125 33.36s-5.056 3.743-6.01 13.195H91.4L87.125 33.36z"/>
      <path fill="#FFF" d="M85.165 49.173l.774 6.546s8.418 2.278 9.53-2.57l1.115-4.849-2.704-1.909"/>
      <path fill="#FFCDA9" d="M116.502 53.038s-4.419-2.68-5.534-9.222c0 0 8.02-1.659 6.664-7.5-1.13-4.855-7.234-3.224-9.177.957v5.573s-3.141-.082-3.694-10.772l-3.676-4.712H88.392s-4.673 10.672-3.226 21.812h8.606s-.686 5.643-7.833 6.546c.562 2.498 1.311 5.03 2.453 7.573h12.654v9.24l7.261 3.29 6.256 1.978 5.326-2.434 1.975-6.794V53.038s-2.102 2.477-5.362 0"/>
      <path fill="url(#home-b)" d="M51.2 97.743c7.234.121 13.852 2.048 19.555 5.314l-6.419-99.52-5.108-2.163a16.092 16.092 0 0 0-6.27-1.271H21.925C13.41.103 6.372 6.697 5.859 15.197c-1.598 26.6-4.83 80.39-5.736 95.439 16.314-7.534 32.804-13.204 51.076-12.893" transform="translate(77 74)"/>
      <path fill="#D5787C" d="M137.562 172.995c3.64.903 7.06 2.268 10.195 4.063l-6.045-93.702c-2.498 2.567-5.056 6.322-6.464 11.702-4.087 15.614 3.42 27.377 3.42 27.377s4.334 26.08-1.106 50.56"/>
      <polygon fill="#FFF" points="85.329 103.017 100.157 103.017 100.157 97.939 85.329 97.939"/>
      <path fill="#FFF" d="M105.597 82.445a3.83 3.83 0 0 0 5.417 0l6.878-6.878-9.065-1.425a3.524 3.524 0 0 0-1.04 0l-9.068 1.425 6.878 6.878z"/>
      <polygon fill="#D02E27" points="54.232 84.801 36.827 88.861 38.501 98.092 56.078 94.41"/>
      <path fill="#FFE2C1" d="M108.306 74.103l-11.49 8.968s-1.284-6.268 4.231-12.243c0 0 1.973 3.275 7.26 3.275"/>
      <path fill="#FFE2C1" d="M108.306 74.103s8.733.676 13.557-5.528c0 0 3.676 1.22 5.975 5.549 0 0-2.226 7.724-9.231 10.264l-10.3-10.285z"/>
      <path fill="#FBD6BF" d="M72.928 59.165c-.752 3.38-4.132 5.53-7.512 4.781l-10.334-2.298a36.5 36.5 0 0 1 .81-6.271 36.507 36.507 0 0 1 1.924-6.02l10.333 2.295c3.38.752 5.531 4.132 4.779 7.513"/>
      <path fill="#FFF" d="M66.418 48.008l-17.792-7.836L42 52.288l.87 13.786 19.435.438c2.522.562 5.489-3.126 6.624-8.237 1.136-5.108.012-9.705-2.51-10.267"/>
      <path fill="#FFCDA9" d="M52.83 67.152s1.462 3.399-1.021 8.621c0 0 3.431 13.047-5.688 15.246-.405-8.935.984-17.943.984-17.943l1.043-4.676"/>
      <path fill="#FB8439" d="M43.055 92.847l-.806-.178a3.418 3.418 0 0 1-2.586-4.066l7.905-35.56a3.417 3.417 0 0 1 4.063-2.585l.806.181a3.412 3.412 0 0 1 2.586 4.063l-7.902 35.56a3.42 3.42 0 0 1-4.066 2.585"/>
      <path fill="#FFCDA9" d="M42.82 74.525c.033-.154 6.639 1.477 6.639 1.477S46.393 88.776 40.004 90.7l-2.894-.643s-.716-6.238.088-12.07l-.52-4.9s3.03-2.178 6.863-1.813l-.722 3.25z"/>
      <path fill="#FCCA93" d="M55.83 39.002L25.851 25.798l-11.17 20.42 1.467 23.226 32.75.74c4.25.946 9.247-5.27 11.162-13.88 1.912-8.609.018-16.357-4.232-17.302"/>
      <path fill="#FFF0EF" d="M31.018 49.85c-3.386 15.232-12.228 26.228-19.75 24.557C3.748 72.734.395 59.03 3.784 43.796c3.386-15.237 12.228-26.232 19.75-24.559 7.521 1.67 10.871 15.376 7.485 30.612"/>
      <path fill="#E7ECFF" d="M29.382 49.485c-3.386 15.233-12.228 26.228-19.75 24.558-7.521-1.67-10.874-15.378-7.488-30.612C5.53 28.195 14.375 17.203 21.897 18.873c7.518 1.674 10.871 15.379 7.485 30.612"/>
      <path fill="url(#home-c)" d="M27.745 49.121C24.767 62.524 16.985 72.2 10.367 70.728c-6.615-1.47-9.563-13.53-6.585-26.932C6.76 30.39 14.542 20.718 21.157 22.189c6.618 1.47 9.567 13.53 6.588 26.932"/>
      <path fill="#E57935" d="M16.172 23.022c1.673-.87 3.365-1.196 4.987-.833 6.615 1.47 9.567 13.53 6.585 26.932 2.248-10.11-2.664-20.29-11.572-26.099m11.573 26.099C24.767 62.524 16.985 72.2 10.367 70.728c-1.619-.36-3.015-1.371-4.162-2.87 10.53-1.486 19.293-8.627 21.54-18.737"/>
      <path fill="#FFF" d="M27.15 40.368c-4.446-.987-8.896 1.843-9.883 6.29-.988 4.449 1.842 8.895 6.289 9.883l1.746.39a48.362 48.362 0 0 0 2.443-7.812c.644-2.893.961-5.7 1.073-8.379l-1.668-.372z"/>
      <path fill="#FBD6BF" d="M28.81 40.873l-3.372-.75c2.362 3.468 4.202 9.48-3.253 16.249l3.03.674c1.009-2.444 1.897-5.075 2.528-7.927.326-1.453.547-2.878.734-4.289a50.5 50.5 0 0 0 .332-3.957"/>
      <path fill="#EA9C9F" d="M138.667 116.175s14.016 35.635 2.945 61.067l12.3 2.673s18.445-27.76 9.893-63.027c-7.772-32.05-22.468-39.353-22.468-39.353s-9.177 4.5-10.433 15.855c-1.532 13.829 7.763 22.785 7.763 22.785"/>
      <path fill="#8D1714" d="M101.085 27.363s-12.901 5.153-19.972-3.906l4.216-1.417s4.912-15.288 18.928-15.35c14.013-.06 13.814 11.068 13.814 11.068l-16.986 9.606z"/>
      <path fill="#8D1714" d="M85.845 21.106l44.123 17.13c1.779-6.364.725-11.203-.798-14.477l-29.053-11.074c-1.555 4.198-11.197 5.11-14.272 8.421"/>
      <path fill="#FFF" d="M89.307 20.606l-7.918-1.794 2.372-8.567a4.843 4.843 0 0 1 5.736-3.431l3.413.773-3.603 13.02z"/>
      <path fill="#FFF" d="M132.379 31.65L85.845 21.108l-16.46-3.731a.752.752 0 0 1-.564-.9l.02-.1a.756.756 0 0 1 .9-.568l62.991 14.273a.75.75 0 0 1 .568.9l-.021.1a.755.755 0 0 1-.9.568"/>
      <path fill="#FCCA93" d="M132.644 30.062c2.927-12.923-5.175-25.773-18.097-28.7-12.926-2.93-25.773 5.175-28.703 18.097l46.8 10.603z"/>
      <path fill="#FFF" d="M120.88 27.363l.831-4.178a8.39 8.39 0 0 0-6.21-9.778L103.796 10.5a3.186 3.186 0 0 0-3.894 2.471l-1.834 9.225 22.813 5.166z"/>
      <path fill="#FC9D59" d="M133.136 26.648L85.845 19.46l46.8 10.603c.259-1.142.4-2.278.491-3.414"/>
    </g>
    <g transform="translate(501.366 401.924)">
      <path fill="url(#home-d)" d="M144.369 180.052H11.75c-6.237 0-11.29-5.057-11.29-11.295V12.243C.46 6.005 5.513.95 11.75.95h132.62c6.237 0 11.294 5.056 11.294 11.294v156.514c0 6.238-5.057 11.295-11.294 11.295"/>
      <path fill="url(#home-e)" fill-rule="nonzero" d="M25.172 122.058a3.97 3.97 0 0 0-3.972-3.969 3.945 3.945 0 0 0-3.075 1.486 3.945 3.945 0 0 0-3.075-1.486 3.97 3.97 0 0 0-3.972 3.97c0 1.274.613 2.395 1.546 3.123l-.006.012.1.066c.09.064.184.124.28.181l5.127 3.36 5.126-3.36a4.48 4.48 0 0 0 .281-.18l.1-.067-.006-.012a3.945 3.945 0 0 0 1.546-3.124m17.608 0a3.97 3.97 0 0 0-3.971-3.969 3.945 3.945 0 0 0-3.075 1.486 3.945 3.945 0 0 0-3.076-1.486 3.97 3.97 0 0 0-3.972 3.97c0 1.274.613 2.395 1.547 3.123l-.006.012.1.066c.09.064.184.124.28.181l5.127 3.36 5.126-3.36c.096-.057.19-.117.28-.18l.1-.067-.003-.012a3.951 3.951 0 0 0 1.544-3.124"/>
      <path fill="#FFF" d="M66.5 111.226H19.063c-4.673 0-8.464-3.788-8.464-8.46V49.7c0-4.673 3.791-8.461 8.464-8.461H66.5a8.46 8.46 0 0 1 8.46 8.46v53.065a8.46 8.46 0 0 1-8.46 8.461"/>
      <polygon fill="#FFF" points="82.41 111.128 146.772 111.128 146.772 108.615 82.41 108.615"/>
      <polygon fill="#FFF" points="82.41 119.344 146.772 119.344 146.772 116.831 82.41 116.831"/>
      <polygon fill="#FFF" points="49.132 119.344 74.961 119.344 74.961 116.831 49.132 116.831"/>
      <polygon fill="#FFF" points="49.132 127.461 74.961 127.461 74.961 124.948 49.132 124.948"/>
      <polygon fill="#FFF" points="49.132 135.581 74.961 135.581 74.961 133.067 49.132 133.067"/>
      <polygon fill="#FFF" points="49.132 143.697 74.961 143.697 74.961 141.184 49.132 141.184"/>
      <polygon fill="#FFF" points="49.132 151.817 74.961 151.817 74.961 149.304 49.132 149.304"/>
      <polygon fill="#FFF" points="49.132 159.933 74.961 159.933 74.961 157.42 49.132 157.42"/>
      <polygon fill="#FFF" points="49.132 168.05 74.961 168.05 74.961 165.537 49.132 165.537"/>
      <polygon fill="#FFF" points="10.603 168.05 36.433 168.05 36.433 165.537 10.603 165.537"/>
      <polygon fill="#FFF" points="10.603 160.051 36.433 160.051 36.433 157.538 10.603 157.538"/>
      <polygon fill="#FFF" points="10.603 152.052 36.433 152.052 36.433 149.539 10.603 149.539"/>
      <polygon fill="#FFF" points="10.603 144.054 36.433 144.054 36.433 141.54 10.603 141.54"/>
      <polygon fill="#FFF" points="10.603 136.052 36.433 136.052 36.433 133.539 10.603 133.539"/>
      <polygon fill="#FFF" points="82.41 127.561 146.772 127.561 146.772 125.047 82.41 125.047"/>
      <polygon fill="#FFF" points="82.41 135.774 146.772 135.774 146.772 133.261 82.41 133.261"/>
      <polygon fill="#FFF" points="82.41 143.99 146.772 143.99 146.772 141.477 82.41 141.477"/>
      <polygon fill="#FFF" points="82.41 152.207 146.772 152.207 146.772 149.693 82.41 149.693"/>
      <polygon fill="#FFF" points="82.41 160.42 146.772 160.42 146.772 157.907 82.41 157.907"/>
      <polygon fill="#FFF" points="82.41 168.636 146.772 168.636 146.772 166.123 82.41 166.123"/>
      <polygon fill="#FFF" points="83.027 55.611 147.385 55.611 147.385 41.241 83.027 41.241"/>
      <polygon fill="#FFF" points="83.027 77.233 147.385 77.233 147.385 62.864 83.027 62.864"/>
      <polygon fill="#FFF" points="83.027 98.852 147.385 98.852 147.385 84.483 83.027 84.483"/>
      <path fill="#FC7E37" d="M144.369.948H11.75C5.514.948.461 6.005.461 12.243v10.222h155.202V12.243c0-6.238-5.057-11.295-11.294-11.295"/>
    </g>
    <g transform="translate(29.117 6.214)">
      <path fill="#FFDBDA" d="M14.109 431.201v-.003l7.621-13.022 12.639 5.193 166.854-.257c17.42-.027 38.634 12.388 47.144 27.59l215.206 384.526c.175.317.305.622.468.936l.806-.553 7.86 6.317-7.512 12.84c-2.94 5.024-9.117 8.153-17.828 8.174l-169.268.39c-17.423.042-38.637-12.364-47.15-27.564L15.508 451.056c-4.35-7.772-4.55-14.813-1.399-19.855"/>
      <path fill="#FB8237" d="M306.975 854.21c-.51.872-1.792 1.585-2.861 1.588-1.066.003-1.52-.704-1.009-1.577.514-.873 1.794-1.585 2.86-1.588 1.07-.003 1.52.703 1.01 1.576m6.066-.019c-.51.873-1.791 1.586-2.86 1.589-1.067.003-1.52-.704-1.006-1.577.51-.873 1.791-1.586 2.857-1.589 1.07-.003 1.52.704 1.01 1.577m6.067-.019c-.51.873-1.792 1.586-2.86 1.589-1.067.003-1.52-.704-1.007-1.577.51-.873 1.791-1.586 2.858-1.589 1.07-.003 1.52.704 1.009 1.577m6.067-.019c-.51.873-1.791 1.586-2.86 1.589-1.067.003-1.52-.704-1.006-1.577.51-.873 1.79-1.586 2.857-1.59 1.07-.002 1.52.705 1.009 1.578m6.067-.019c-.51.873-1.79 1.586-2.86 1.589-1.067.003-1.52-.704-1.006-1.577.51-.873 1.791-1.586 2.857-1.589 1.07-.003 1.52.704 1.01 1.577m6.066-.019c-.51.873-1.79 1.586-2.86 1.589-1.066.003-1.52-.704-1.006-1.577.51-.873 1.792-1.586 2.858-1.589 1.07-.003 1.52.704 1.009 1.577m6.067-.019c-.51.873-1.791 1.586-2.86 1.589-1.067.003-1.52-.704-1.006-1.577.51-.873 1.79-1.586 2.857-1.589 1.07-.003 1.52.704 1.01 1.577m-39.223 4.93c-.51.873-1.791 1.586-2.86 1.589-1.067.003-1.52-.704-1.01-1.577.514-.876 1.795-1.586 2.861-1.589 1.07-.003 1.52.704 1.01 1.577m6.066-.019c-.51.873-1.791 1.585-2.86 1.588-1.067.004-1.52-.703-1.01-1.576.514-.873 1.795-1.586 2.861-1.59 1.07-.002 1.52.705 1.01 1.578m6.066-.019c-.51.873-1.79 1.585-2.86 1.588-1.066.003-1.52-.703-1.006-1.576.51-.873 1.791-1.586 2.858-1.59 1.07-.002 1.52.705 1.009 1.578m6.067-.019c-.51.873-1.791 1.586-2.86 1.589-1.067.003-1.52-.704-1.006-1.577.51-.873 1.79-1.586 2.857-1.589 1.07-.003 1.52.704 1.009 1.577m6.067-.019c-.51.872-1.79 1.585-2.86 1.588-1.067.003-1.52-.703-1.006-1.576.51-.873 1.791-1.586 2.857-1.59 1.07-.002 1.52.705 1.01 1.578m6.067-.019c-.51.872-1.792 1.585-2.86 1.588-1.067.003-1.52-.703-1.007-1.576.51-.873 1.792-1.586 2.858-1.59 1.07-.002 1.52.704 1.009 1.577m6.067-.019c-.51.873-1.791 1.586-2.86 1.59-1.067.002-1.52-.704-1.007-1.577.51-.873 1.792-1.586 2.858-1.59 1.07-.002 1.52.704 1.009 1.577m8.638-4.834c-.51.873-1.792 1.586-2.86 1.59-1.067.002-1.52-.704-1.007-1.577.51-.873 1.792-1.586 2.858-1.59 1.07-.002 1.52.704 1.009 1.577m-2.818 4.816c-.51.873-1.792 1.586-2.86 1.589-1.067.003-1.52-.704-1.007-1.577.51-.873 1.792-1.586 2.858-1.589 1.07-.003 1.52.704 1.009 1.577m8.638-4.834c-.51.873-1.791 1.586-2.86 1.59-1.07.002-1.52-.705-1.006-1.578.51-.873 1.79-1.585 2.857-1.588 1.07-.004 1.52.703 1.009 1.576m-2.818 4.816c-.51.873-1.792 1.586-2.86 1.589-1.07.003-1.52-.704-1.01-1.577.514-.873 1.795-1.586 2.86-1.589 1.07-.003 1.52.704 1.01 1.577m39.45-5.147c-.51.873-1.792 1.586-2.861 1.589-1.066.003-1.52-.704-1.009-1.577.514-.873 1.794-1.586 2.86-1.589 1.07-.003 1.52.704 1.01 1.577m6.067-.019c-.51.873-1.792 1.585-2.86 1.588-1.067.004-1.52-.703-1.01-1.576.514-.873 1.794-1.586 2.86-1.59 1.07-.002 1.52.705 1.01 1.578m6.067-.02c-.51.873-1.791 1.586-2.86 1.59-1.067.002-1.52-.705-1.01-1.578.514-.873 1.795-1.585 2.861-1.589 1.07-.003 1.52.704 1.009 1.577m6.067-.018c-.51.872-1.79 1.585-2.86 1.588-1.066.003-1.52-.704-1.006-1.577.51-.873 1.791-1.586 2.857-1.589 1.07-.003 1.52.704 1.01 1.577m6.066-.019c-.51.874-1.79 1.586-2.86 1.59-1.066.002-1.52-.704-1.006-1.577.51-.873 1.791-1.586 2.858-1.59 1.069-.002 1.519.705 1.008 1.578m6.068-.02c-.51.873-1.791 1.586-2.86 1.59-1.067.002-1.52-.704-1.007-1.577.51-.873 1.792-1.586 2.858-1.59 1.07-.002 1.52.705 1.009 1.577m6.067-.019c-.51.873-1.791 1.586-2.86 1.59-1.067.002-1.52-.704-1.01-1.577.514-.873 1.795-1.586 2.861-1.59 1.07-.002 1.52.704 1.01 1.577m-39.222 4.93c-.51.873-1.792 1.586-2.861 1.59-1.066.002-1.52-.705-1.009-1.578.514-.873 1.794-1.586 2.86-1.589 1.07-.003 1.52.704 1.01 1.577m6.066-.019c-.51.873-1.791 1.586-2.86 1.589-1.067.003-1.52-.704-1.006-1.577.51-.873 1.79-1.586 2.86-1.589 1.066-.003 1.517.704 1.006 1.577m6.068-.019c-.51.873-1.792 1.586-2.86 1.589-1.067.003-1.52-.704-1.007-1.577.51-.873 1.792-1.586 2.858-1.589 1.07-.003 1.52.704 1.009 1.577m6.067-.019c-.51.873-1.791 1.586-2.86 1.589-1.067.003-1.52-.704-1.006-1.577.51-.873 1.79-1.586 2.857-1.589 1.07-.003 1.52.704 1.01 1.577m6.066-.019c-.51.873-1.79 1.586-2.86 1.589-1.07.003-1.52-.704-1.01-1.577.514-.873 1.795-1.586 2.862-1.589 1.069-.003 1.519.704 1.008 1.577m6.068-.019c-.51.873-1.791 1.586-2.86 1.589-1.07.003-1.52-.704-1.01-1.577.514-.873 1.795-1.586 2.86-1.589 1.07-.003 1.52.704 1.01 1.577m6.067-.019c-.51.873-1.791 1.586-2.86 1.589-1.067.003-1.52-.704-1.006-1.577.51-.873 1.791-1.586 2.857-1.59 1.07-.002 1.52.705 1.01 1.578m8.637-4.834c-.51.873-1.791 1.586-2.86 1.589-1.067.003-1.52-.704-1.01-1.577.514-.873 1.795-1.586 2.861-1.589 1.07-.003 1.52.704 1.01 1.577m-2.819 4.816c-.511.873-1.792 1.585-2.861 1.589-1.066.003-1.52-.704-1.006-1.577.51-.873 1.791-1.583 2.86-1.59 1.067-.002 1.517.705 1.007 1.578m8.638-4.834c-.51.873-1.791 1.586-2.86 1.589-1.07.003-1.52-.704-1.01-1.577.514-.873 1.795-1.586 2.861-1.589 1.07-.003 1.52.704 1.01 1.577m-2.82 4.815c-.51.873-1.79 1.586-2.86 1.59-1.066.002-1.52-.701-1.006-1.577.51-.873 1.791-1.586 2.858-1.59 1.069-.002 1.519.705 1.008 1.577"/>
      <path fill="#FFF" d="M471.718 821.309c8.507 15.203 1.215 27.672-16.206 27.714l-169.267.387c-17.42.042-38.638-12.36-47.15-27.56L23.654 437.136c-8.513-15.2-1.22-27.657 16.2-27.684l169.515-.26c17.42-.03 38.637 12.388 47.143 27.59L471.718 821.31z"/>
      <polygon fill="#FFF0EF" points="448.604 779.88 216.069 780.599 26.36 442.122 259.141 441.632"/>
      <polygon fill="#FCCA93" points="249.378 441.723 438.857 779.792 225.313 780.514 36.471 442.182"/>
      <path fill="#FFF" d="M246.414 595.061c3.054-9.33 1.622-18.094-2.141-25.917h8.177c5.225 11.007 2.537 20.556-6.036 25.917zm-76.375-25.917h9.832c4.86 8.144 13.349 17.311 27.446 27.074-15.638-5.065-30.13-15.224-37.278-27.074zm5.957-30.113c-2.169 5.476-3.848 14.934 2.123 26.884h-9.82c-5.552-11.696-2.184-21.758 7.697-26.884zm53.04 26.884c-7.612-13.75-18.063-24.217-23.561-29.19.637.128 1.272.279 1.906.427 5.534 3.15 22.646 13.756 31.243 28.763h-9.588zm1.695 3.229h9.584c3.979 8.512 4.954 18.275-.256 28.784-.623.193-1.263.366-1.918.529.042-10.603-3.024-20.547-7.41-29.313zm-17.408 0h13.279c4.452 8.944 7.488 19.184 7.005 30.131-1.248.154-2.54.26-3.879.311l-16.405-30.442zm-15.787 0h11.633l16.406 30.442c-.795-.03-1.586-.042-2.387-.105l.036-.018c-12.56-11.156-20.561-21.523-25.688-30.32zm-4.12 0c5.12 8.869 12.899 18.943 24.595 29.687a82.88 82.88 0 0 1-2.072-.374c-17.043-10.706-26.797-20.653-32.077-29.313h9.554zm14.013-3.23h-11.693c-2.416-4.576-4.045-8.66-5.12-12.103-3.069-9.823-2.462-16.454-2.217-18.188a51.614 51.614 0 0 1 2.625-.15l16.405 30.442zm-12.255-30.442c1.559.06 3.124.181 4.704.366 3.337 2.779 16.175 14.058 25.032 30.077h-13.33l-16.406-30.443zm-12.481 1.112c.344-.085.695-.16 1.048-.236-.19 4.803.486 15.448 7.89 29.567h-9.554c-8.126-16.113-1.006-27.16.616-29.331zm68.017 29.33h-8.162c-6.41-11.082-17.085-20.017-25.045-25.627 14.05 5.413 26.685 14.817 33.207 25.628zm-59.396-33.752c-25.069 0-36.913 15.864-26.404 35.369 10.512 19.501 39.456 35.37 64.528 35.37 25.066 0 36.91-15.869 26.398-35.37-10.51-19.505-39.456-35.37-64.522-35.37z"/>
      <path fill="url(#home-f)" fill-rule="nonzero" d="M269.376 639.765c4.531 8.406-.555 15.221-11.36 15.221-10.808 0-23.239-6.815-27.77-15.221-4.53-8.407.556-15.221 11.361-15.221s23.238 6.814 27.77 15.22"/>
      <path fill="url(#home-g)" fill-rule="nonzero" d="M259.84 658.37c-16.128 0-23.789 10.264-17.029 22.809l7.73 14.342c1.336 2.477 4.997 4.485 8.18 4.485h47.111c3.184 0 4.682-2.008 3.35-4.485l-7.73-14.342c-6.763-12.545-25.488-22.81-41.613-22.81"/>
      <path fill="url(#home-h)" fill-rule="nonzero" d="M285.786 602.899c-12.687 0-18.659 7.999-13.34 17.87 2.752 5.105 8 9.703 14.17 12.959.01 1.734-1.063 3.848-5.977 4.561 0 0 11.185 3.8 15.765-.797 2.893.728 5.814 1.145 8.642 1.145 12.687 0 18.659-8 13.34-17.868-5.317-9.871-19.913-17.87-32.6-17.87"/>
      <path fill="url(#home-i)" fill-rule="nonzero" d="M207.803 631.92c5.4 0 11.611 3.404 13.874 7.605 1.172 2.175 1.048 4.13-.085 5.516.792.737 2.22 1.637 4.637 1.942 0 0-3.018 1.616-7.074-.338-.897.308-1.952.486-3.154.486-5.4 0-11.611-3.407-13.877-7.606-2.262-4.201.278-7.606 5.679-7.606"/>
      <path fill="#FFF0EF" d="M49.336 428.96c-.975 1.668-4.787 1.263-8.509-.915-3.721-2.178-5.942-5.301-4.966-6.968.982-1.677 4.79-1.27 8.512.909 3.722 2.178 5.945 5.298 4.963 6.975"/>
      <polygon fill="url(#home-j)" fill-rule="nonzero" points="249.378 441.723 269.466 476.953 56.281 477.675 36.471 442.182"/>
      <path fill="#FFF" d="M75.439 464.006c-1.438 2.46-7.05 1.858-12.533-1.347-5.48-3.208-8.748-7.808-7.31-10.267 1.444-2.465 7.053-1.864 12.533 1.341 5.48 3.208 8.754 7.805 7.31 10.273m25.946 0c-1.438 2.46-7.05 1.858-12.533-1.347-5.48-3.208-8.751-7.808-7.31-10.267 1.444-2.465 7.053-1.864 12.533 1.341 5.48 3.208 8.754 7.805 7.31 10.273"/>
      <polygon fill="#FFF" points="207.004 747.711 225.312 780.516 438.857 779.794 420.615 747.249"/>
      <polygon fill="url(#home-k)" fill-rule="nonzero" points="207.004 747.711 225.312 780.516 367.844 780.032 349.484 747.352"/>
      <path fill="#FFF0EF" d="M383.776 822.228c-3.075 5.845-15.375 4.842-27.482-2.244-12.1-7.08-19.423-17.56-16.348-23.408 3.081-5.854 15.384-4.854 27.485 2.23 12.107 7.086 19.426 17.565 16.345 23.422"/>
      <path fill="#FFF" d="M379.917 819.398c-2.649 4.528-12.986 3.422-23.08-2.483-10.093-5.909-16.116-14.379-13.467-18.907 2.661-4.543 12.992-3.434 23.084 2.471 10.095 5.909 16.124 14.373 13.463 18.919"/>
      <path fill="#FFF0EF" d="M105.808 422.834a1.27 1.27 0 0 1 .287-.045c.042-.006.081-.01.127-.012.027 0 .048-.006.078-.006l48.657.577c.076 0 .164.015.248.02 1.293.055 2.94.566 4.576 1.52 2.96 1.734 4.722 4.23 3.933 5.576-.23.393-.664.626-1.214.746a1.409 1.409 0 0 1-.468.079c-.045.003-.097.003-.142.003l-48.53-.447c-.067 0-.152-.012-.227-.018-1.36-.01-3.123-.526-4.863-1.544-3.021-1.767-4.764-4.31-3.906-5.676.272-.429.791-.673 1.444-.773"/>
      <path fill="#FCCA93" d="M611.349 229.156a47.157 47.157 0 0 1-2.097-13.946c0-26.069 21.133-47.202 47.199-47.202 21.365 0 39.407 14.2 45.222 33.678 10.826.99 19.306 10.083 19.306 21.166 0 1.882-.27 3.697-.728 5.437l2.34-.006c8.664.83 15.497 8.177 15.497 17.046 0 9.418-7.706 17.127-17.128 17.127h-58.453l-19.432 19.432v-19.432h-26.171c-9.422 0-17.128-7.709-17.128-17.127 0-7.476 4.86-13.853 11.573-16.173"/>
      <path fill="#FFF" fill-rule="nonzero" d="M658.103 196.786l-28.98 29.218a2.53 2.53 0 0 0 0 3.576l20.467 20.466a2.53 2.53 0 0 0 3.576 0l28.217-28.98v-24.28h-23.28zm13.28 14a4 4 0 1 1 0-8 4 4 0 0 1 0 8z"/>
      <path fill="url(#home-l)" d="M43.5 2a8 8 0 1 0 0 16 8 8 0 0 0 0-16zm0 12a4 4 0 1 1 0-8 4 4 0 0 1 0 8z" transform="translate(627.883 196.786)"/>
      <path fill="url(#home-m)" fill-rule="nonzero" d="M43.5 16a.999.999 0 0 1-.707-1.707l14-14a.999.999 0 1 1 1.414 1.414l-14 14A.997.997 0 0 1 43.5 16z" transform="translate(627.883 191.786)"/>
      <path fill="url(#home-n)" d="M23.149 51.792a.999.999 0 0 1-.707-1.707L33.05 39.479a.999.999 0 1 1 1.414 1.414L23.856 51.499a.997.997 0 0 1-.707.293z" transform="translate(627.883 191.786)"/>
      <path fill="url(#home-o)" d="M37.29 37.649c-.26 0-.521-.109-.71-.29a1.043 1.043 0 0 1-.29-.71c0-.26.109-.52.29-.71.37-.37 1.06-.37 1.42 0a1.016 1.016 0 0 1 0 1.42c-.181.181-.44.29-.71.29z" transform="translate(627.883 191.786)"/>
      <path fill="url(#home-p)" d="M16.786 38.357a.999.999 0 0 1-.707-1.707l10.606-10.607a.999.999 0 1 1 1.414 1.414L17.493 38.064a.993.993 0 0 1-.707.293z" transform="translate(627.883 191.786)"/>
      <path fill="url(#home-q)" d="M25.271 39.771a.999.999 0 0 1-.707-1.707l7.071-7.071a.999.999 0 1 1 1.414 1.414l-7.071 7.071a.993.993 0 0 1-.707.293z" transform="translate(627.883 191.786)"/>
      <path fill="url(#home-r)" d="M18.2 46.843a.999.999 0 0 1-.707-1.707l1.414-1.415a.999.999 0 1 1 1.414 1.414l-1.414 1.415a.997.997 0 0 1-.707.293z" transform="translate(627.883 191.786)"/>
      <path fill="url(#home-s)" d="M8.301 36.942a.999.999 0 0 1-.707-1.707L18.2 24.629a.999.999 0 1 1 1.414 1.414L9.008 36.649a.995.995 0 0 1-.707.293z" transform="translate(627.883 191.786)"/>
      <path fill="url(#home-o)" d="M22.439 22.8c-.26 0-.52-.11-.71-.29-.18-.19-.29-.45-.29-.71 0-.27.11-.52.301-.71.359-.37 1.04-.37 1.409 0a1.01 1.01 0 0 1 0 1.42c-.189.179-.439.29-.71.29zM13.96 41.189a.992.992 0 0 1-.71-.3.965.965 0 0 1-.29-.7c0-.27.1-.529.29-.71.37-.37 1.04-.37 1.41 0 .189.19.3.44.3.71 0 .261-.11.511-.29.7-.191.191-.45.3-.71.3zm8.479 1.411c-.26 0-.52-.109-.71-.29a1.05 1.05 0 0 1-.29-.71c0-.26.11-.52.29-.71.37-.37 1.051-.37 1.42 0 .19.19.29.45.29.71 0 .26-.1.521-.29.71-.189.18-.439.29-.71.29z" transform="translate(627.883 191.786)"/>
      <path fill="#FCCA93" d="M592.666 64.775c1.278-4.138 2-8.518 2.148-13.043l21.054-16.427H592.65C586.359 15.03 567.455.301 545.11.301c-22.528 0-41.55 14.974-47.681 35.509-11.413 1.045-20.357 10.632-20.357 22.317 0 1.984.284 3.9.767 5.733l-2.467-.003c-9.132.873-16.34 8.618-16.34 17.97 0 9.932 8.126 18.055 18.058 18.055h109.72c9.932 0 18.06-8.123 18.06-18.055 0-7.884-5.126-14.608-12.203-17.052"/>
      <g fill="#FFF" fill-rule="nonzero" transform="translate(507.883 32.786)">
        <path d="M57.018 8.91a3.009 3.009 0 0 0-2.268-1.035H13.293l-.585-3.492A3 3 0 0 0 9.75 1.875H3c-1.659 0-3 1.341-3 3s1.341 3 3 3h4.209l5.58 33.492c.024.135.093.246.135.372.048.159.087.309.162.453.096.198.225.366.36.537.093.117.177.234.285.336.174.162.375.276.579.39.114.063.213.147.336.195.348.141.714.225 1.101.225H48.75c1.659 0 3-1.341 3-3s-1.341-3-3-3H18.291l-.498-3H51.75a2.999 2.999 0 0 0 2.97-2.574l3-21a3.005 3.005 0 0 0-.702-2.391zm-5.727 4.965l-.855 6H39.75v-6h11.541zm-14.541 0v6h-9v-6h9zm0 9v6h-9v-6h9zm-12-9v6h-9c-.159 0-.303.045-.444.09l-1.014-6.09H24.75zm-8.958 9h8.958v6h-7.959l-.999-6zm23.958 6v-6h10.254l-.855 6H39.75z"/>
        <circle cx="20.25" cy="51.375" r="4.5"/>
        <circle cx="47.25" cy="51.375" r="4.5"/>
      </g>
      <path fill="#F7C0C2" d="M293.159 313.914s-7.77 12.089-5.9 32.436c0 0 58.345-2.247 94.487-60.743l-9.155-8.455s-43.184 42.673-79.432 36.762"/>
      <path fill="#FFCDA9" d="M377.215 274.433s.36-6.253 1.265-8.253c0 0 3.04-10.826 3.622-12.469 0 0 2.631-.402 2.661 2.858.028 3.259-.97 7.24-.97 7.24s3.541-3.356 4.864-6.195c1.32-2.837 4.09-8.365 5.924-9.041 1.83-.677 1.894 1.353 1.894 1.353s-4.263 8.488-5.163 10.313c-.788 1.604.097 1.522.097 1.522l8.316-10.053c1.266-1.525 2.589-1.398 3.516.148 0 0-3.734 4.574-5.779 7.585-.71 1.048-3.776 4.166-2.546 4.903 0 0 6.802-6.682 7.814-7.945 1.012-1.265 2.553-.987 2.937.686l-8.528 9.77s-.468.794.154.923c.559.115 5.794-2.939 6.265-3.413.474-.471 2.081-1.824 2.99-.365 0 0 .242.54-1.247 1.833-1.486 1.29-8.328 7.64-8.328 7.64s-4.078 4.64-10.57 7.04c-6.54 2.417-8.572.511-4.83 1.855l-1.767-3.356-2.591-4.579z"/>
      <polygon fill="#D84542" points="386.433 280.697 377.136 272.493 372.592 277.151 381.745 285.606"/>
      <path fill="#EA9C9F" d="M295.142 314.328s13.16 7.338 21.51 25.265c-5.452 1.756-9.186 3.586-9.186 3.586l-7.811-8.99"/>
      <path fill="#8D1714" d="M151.303 524.19l-7.98.182.751 33.11 7.754-23.486c.287-.864.38-1.78.278-2.682l-.803-7.123z"/>
      <path fill="url(#home-t)" d="M219.608 424.701l15.747 69.724s-39.544 3.44-85.839 29.838l2.77 9.228 124.036-22.894v-26.213l-11.388-29.996"/>
      <path fill="url(#home-u)" d="M219.608 424.701s27.573 50.702 65.298 85.824c0 0-28.853 38.444-30.527 91.321l7.25 3.794 48.627-94.484-23.426-88.79-67.222 2.335z"/>
      <path fill="url(#home-v)" d="M300.545 400.093s-9.796-22.455-4.682-41.703c3.332-2.332 7.603-4.975 9.125-7.16-.468-9.747-1.205-15.227-2.63-20.748-2.934-11.35-5.54-18.771-8.147-18.517-10.775-4.217-14.762-9.18-29.884-5.582-15.384 3.658-28.594 34.928-36.883 76.378 24.87 23.362 73.101 17.332 73.101 17.332"/>
      <path fill="url(#home-w)" d="M267.384 307.906l-3.059 4.364s0 10.875-15.523 21.547c-11.038 7.585-27.546 62.842-27.546 62.842s-64.008-8.847-54.007-61.555c7.911-41.701 60.194-31.54 85.682-52.412 8.65-7.087 13.164-13.946 17.921-18.927a19.372 19.372 0 0 1 5.24-4.447c3.465-2.205 7.642-3.419 13.654-3.22 14.888.14 21.74 10.811 22.037 22.221.728 28.023-14.732 36.01-14.732 36.01l-1.743-2.006-4.972-1.41-6.292-12.787-.924 7.534-8.05-4.084-7.686 6.33z"/>
      <path fill="#FFCDA9" d="M306.015 276.398c.016.127 3.335 6.138 3.59 10.869h-5.085l1.495-10.869z"/>
      <path fill="#FFCDA9" d="M291.164 302.425l13.808-.31c.41-4.16.658-4.93.927-6.933-5.087.332-6.815-3.676-6.815-3.676h7.325c1.752-16.478-.51-20.496-.51-20.496l-.91-1.996c-4.99 10.034-17.8 4.407-17.8 4.407.423 7.337-6.489 7.476-6.489 7.476 1.798 15.206-8.243 18.96-8.243 18.96l-4.265 7.78 15.079 12.082 8.243-1.266-.35-1.749v-14.279z"/>
      <path fill="#FCCA93" d="M278.349 319.55l6.201 4.676c2.036 1.537 4.975.73 5.942-1.628l2.534-6.166-6.564-.39-8.113 3.508z"/>
      <path fill="#D84542" d="M286.462 316.041l-8.023 8.023s-14.113-6.564-14.113-17.683l3.658-3.957s7.47 10.213 18.478 13.617m0 0l7.615 5.849s1.07-5.235-2.867-11.138l-4.748 5.29z"/>
      <polyline fill="#8D1714" points="297.938 464.467 230.278 471.943 227.445 458.667"/>
      <path fill="#FDE8DC" d="M311.411 463.727H233.81c-8.95 0-16.206-7.256-16.206-16.206v-77.602c0-8.95 7.255-16.206 16.206-16.206h77.601c8.95 0 16.206 7.256 16.206 16.206v77.602c0 8.95-7.256 16.206-16.206 16.206"/>
      <path fill="url(#home-x)" fill-rule="nonzero" d="M314.618 402.925c0-13.073-10.597-23.67-23.67-23.67-7.44 0-13.998 3.504-18.34 8.872-4.337-5.368-10.895-8.872-18.335-8.872-13.073 0-23.67 10.597-23.67 23.67 0 7.6 3.643 14.285 9.207 18.617l-.03.075.595.39c.54.393 1.1.746 1.67 1.093l30.564 20.016 30.566-20.016c.571-.347 1.13-.7 1.668-1.093l.598-.39-.034-.075c5.568-4.332 9.21-11.017 9.21-18.617"/>
      <path fill="#FCCA93" d="M238.086 248.763c0-9.736-7.893-17.626-17.629-17.626-5.54 0-10.42 2.607-13.653 6.607-3.232-4-8.114-6.607-13.657-6.607-9.732 0-17.625 7.89-17.625 17.626 0 5.658 2.712 10.639 6.857 13.862l-.021.057.44.29c.402.293.82.556 1.245.816l22.761 14.904 22.76-14.904c.427-.26.844-.523 1.245-.816l.441-.29-.02-.057c4.144-3.223 6.856-8.204 6.856-13.862"/>
      <path fill="url(#home-y)" d="M225.57 198.665c0-5.842-4.733-10.575-10.575-10.575-3.323 0-6.253 1.567-8.193 3.963-1.936-2.396-4.866-3.963-8.189-3.963-5.842 0-10.575 4.733-10.575 10.575 0 3.395 1.628 6.383 4.114 8.316l-.015.033.266.175c.241.176.49.336.746.49l13.653 8.941 13.657-8.941c.254-.154.504-.314.746-.49l.266-.175-.015-.033c2.486-1.933 4.114-4.92 4.114-8.316"/>
      <path fill="#FCCA93" d="M220.152 161.574a7.522 7.522 0 0 0-7.522-7.521c-2.365 0-4.446 1.114-5.827 2.818-1.377-1.704-3.461-2.818-5.827-2.818a7.522 7.522 0 0 0-7.521 7.521c0 2.414 1.16 4.54 2.927 5.915l-.01.024.188.124c.172.127.35.238.532.347l9.711 6.362 9.712-6.362c.181-.109.36-.22.532-.347l.19-.124-.012-.024c1.77-1.375 2.927-3.501 2.927-5.915M286.57 325s-2.09 25.894 15.894 28.716c27.208 4.265 27.773 22.7 27.773 22.7l6.28 2.84 4.667-12.165s3.57-15.53-22.852-20.894c-15.23-3.093-30.663-3.785-29.992-21.57"/>
      <polygon fill="#8D1714" points="254.757 599.882 250.35 606.536 277.959 624.827 263.65 605.775"/>
      <path fill="url(#home-z)" d="M283.763 204.685a47.157 47.157 0 0 1-2.096-13.947c0-26.068 21.132-47.2 47.198-47.2 21.365 0 39.408 14.2 45.223 33.677 10.826.99 19.305 10.083 19.305 21.166 0 1.882-.269 3.697-.728 5.437l2.34-.006c8.664.83 15.497 8.177 15.497 17.046 0 9.418-7.706 17.127-17.127 17.127H334.92l-19.432 19.432v-19.432h-26.171c-9.422 0-17.127-7.709-17.127-17.127 0-7.476 4.86-13.853 11.572-16.173"/>
      <g transform="translate(301.883 163.786)">
        <polygon fill="#E55744" fill-rule="nonzero" points="16.55 44.459 16.55 60.354 29.648 60.354 29.648 37.894"/>
        <polygon fill="#F96E6C" fill-rule="nonzero" points="29.648 37.894 29.648 60.354 42.746 60.354 42.746 31.329"/>
        <polygon fill="#FFF" fill-rule="nonzero" points="42.746 60.354 55.843 60.354 55.843 24.765 42.746 31.329"/>
        <path fill="#FCCA93" d="M59.91 24.247c.006-.031.013-.064.017-.096.006-.039.01-.079.013-.118.003-.034.007-.068.008-.102.002-.038.002-.076.002-.114 0-.026.002-.052 0-.078l-.002-.028a1.953 1.953 0 0 0-.01-.11 1.841 1.841 0 0 0-.012-.107 2.097 2.097 0 0 0-.02-.108l-.023-.107-.03-.102a2.303 2.303 0 0 0-.073-.204l-.014-.033-.016-.04a.145.145 0 0 0-.006-.012c-.004-.01-.01-.018-.014-.027l-.016-.036-.03-.053a2.595 2.595 0 0 0-.117-.196 2.402 2.402 0 0 0-.134-.178l-.068-.079a2.643 2.643 0 0 0-.157-.155 2.335 2.335 0 0 0-.355-.26 2.21 2.21 0 0 0-.501-.22c-.02-.005-.04-.013-.062-.02l-8.588-2.3a2.24 2.24 0 1 0-1.16 4.33l2.893.774-37.756 18.924a2.242 2.242 0 0 0 2.008 4.007l38.568-19.332-1.01 3.77a2.24 2.24 0 1 0 4.33 1.16l2.3-8.589c.003-.012.005-.025.009-.037.01-.041.018-.082.026-.124z"/>
        <path fill="#FFF" fill-rule="nonzero" d="M26.39 48.864l-4.933-1.62H8.207L3.26 48.865A4.736 4.736 0 0 0 0 53.366v6.988h29.648v-6.99a4.737 4.737 0 0 0-3.258-4.5z"/>
        <polygon fill="url(#home-A)" fill-rule="nonzero" points="10.081 45.126 19.567 45.126 19.567 49.14 10.081 49.14"/>
        <polygon fill="url(#home-B)" fill-rule="nonzero" points="16.466 53.152 13.182 53.152 12.453 49.14 17.195 49.14"/>
        <polygon fill="url(#home-C)" fill-rule="nonzero" points="6.797 47.68 11.541 52.788 14.824 49.14 10.081 45.126"/>
        <polygon fill="url(#home-D)" fill-rule="nonzero" points="17.347 60.354 16.466 53.152 13.182 53.152 12.301 60.354"/>
        <path fill="url(#home-E)" d="M20.21 25.72c-.23-.885-1.206-2.139-4.905-2.139-5.716 0-6.53.846-8.051-.615-1.284-1.234-2.037 4.702-.326 6.587-.723 2.67-.145 5.344-.145 5.344h16.082s1.35-6.246-2.655-9.177z"/>
        <g fill="#FFE4D1" fill-rule="nonzero" transform="translate(5.069 33.831)">
          <polygon points="13.4 7.283 6.11 7.283 6.11 12.224 9.755 15.309 13.404 12.222"/>
          <path d="M3.338 1.348S2.645.078 1.258.078c-1.386 0-2.369 6.096 2.08 5.08v-3.81zm12.834 0s.693-1.27 2.08-1.27 2.369 6.096-2.08 5.08v-3.81z"/>
        </g>
        <path fill="#FFEFE4" fill-rule="nonzero" d="M14.824 27.01c-10.623 0-8.592 17.422 0 17.422s10.623-17.423 0-17.423z"/>
        <path fill="url(#home-F)" d="M14.824 26.061S7.6 25.041 7.6 34.313c0 0 .91-3.832 2.997-4.877.972-.487 1.328.746 4.229.746 2.9 0 3.256-1.233 4.228-.746 2.088 1.045 2.997 4.877 2.997 4.877 0-9.271-7.226-8.252-7.226-8.252z"/>
        <polygon fill="url(#home-C)" fill-rule="nonzero" points="22.851 47.68 18.108 52.788 14.824 49.14 19.567 45.126"/>
        <path fill="#FFF" fill-rule="nonzero" d="M40.429 0H19.925a4.01 4.01 0 0 0-4.01 4.01v11.765a4.01 4.01 0 0 0 4.01 4.01h3.042v4.229a.749.749 0 0 0 1.278.53l4.758-4.758H40.43a4.01 4.01 0 0 0 4.01-4.011V4.011A4.01 4.01 0 0 0 40.43 0z"/>
        <path fill="url(#home-G)" fill-rule="nonzero" d="M29.59 15.41a4.007 4.007 0 0 1-1.963-.853 3.335 3.335 0 0 1-.835-1.011.937.937 0 0 1 .46-1.323.912.912 0 0 1 1.128.356c.074.123.159.24.255.353.264.309.583.522.956.64v-2.795l-.132-.06a6.67 6.67 0 0 1-1.022-.485 3.932 3.932 0 0 1-.838-.647 2.882 2.882 0 0 1-.575-.83 2.445 2.445 0 0 1-.214-1.038c0-.353.064-.686.191-1a2.56 2.56 0 0 1 .553-.838c.24-.245.531-.45.876-.61a3.67 3.67 0 0 1 1.16-.317v-.61a.654.654 0 1 1 1.31 0v.64a3.274 3.274 0 0 1 1.773.816c.082.072.162.159.237.252.371.466.182 1.161-.36 1.403a.937.937 0 0 1-1.077-.24 1.765 1.765 0 0 0-.573-.423v2.633c.422.177.804.359 1.148.545.343.186.637.397.882.633a2.4 2.4 0 0 1 .559.8c.128.3.191.646.191 1.038 0 .441-.076.834-.227 1.177a2.758 2.758 0 0 1-.611.882 2.99 2.99 0 0 1-.89.589c-.338.147-.689.25-1.052.309v.64a.655.655 0 0 1-1.31 0v-.625zm-.97-7.693c0 .235.077.439.228.61.153.172.4.346.743.523V6.702a1.538 1.538 0 0 0-.706.382.862.862 0 0 0-.264.633zm3.178 4.737a.955.955 0 0 0-.207-.633c-.137-.167-.367-.333-.691-.5v2.25a1.44 1.44 0 0 0 .648-.419 1.03 1.03 0 0 0 .25-.698z"/>
      </g>
      <path fill="url(#home-H)" d="M481.924 590.139l-2.34.003c.459-1.737.727-3.553.727-5.435 0-11.083-8.482-20.175-19.305-21.166-5.815-19.477-23.857-33.677-45.223-33.677-26.068 0-47.198 21.132-47.198 47.201 0 4.854.734 9.54 2.097 13.947-2.71.933-5.09 2.552-6.996 4.615 6.443 5.63 14.417 11.367 24.316 17.17 10.005 5.866 20.142 10.814 30.325 15.025l3.513-3.513h58.453c9.422 0 17.128-7.706 17.128-17.125 0-8.868-6.836-16.215-15.497-17.045"/>
      <path fill="#EA9C9F" d="M273.1 444.745l-17.203 2.987s-37.873-47.175 1.867-114.992c-1.413 5.551 17.617-6.696 13.596 19.2 0 0-15.463 38.831 1.74 92.805z"/>
      <path fill="#F7C0C2" d="M273.1 444.745l-17.203 2.987s-37.877-47.61 1.864-115.427c0 2 17.62-6.261 13.599 19.635 0 0-28.28 38.831 1.74 92.805z"/>
      <path fill="#FFCDA9" d="M272.719 445.557l2.7 7.95 6.344 1.341 8.854 1.48s-1.239 2.157-2.767 2.77c-2.133.855-4.44.601-4.44.601l1.353 3.976 7.557.051-10.932 5.29-8.778 2.763-7.678-4.202-1.447-9.841-2.36-2.9 11.594-9.28z"/>
      <polygon fill="#D84542" points="260.734 456.924 274.998 448.445 270.455 439.585 255.898 447.732"/>
      <path fill="#EA9C9F" d="M697.666 516.568s-60.62 3.703-90.53-32.394l-8.63 12.608s33.472 50.503 107.134 55.817c0 0 4.882-19.635-7.974-36.031"/>
      <path fill="#D5787C" d="M621.601 520.481c9.277 7.389 21.435 15.188 36.617 21.305l26.703-7.817-.728-17.557c-11.173-.64-27.772-2.764-43.909-9.177l-18.683 13.246z"/>
      <path fill="#FFB500" d="M694.363 551.371l3.302-34.804-27.74 29.364c7.519 2.329 15.663 4.202 24.438 5.44"/>
      <path fill="#FFCDA9" d="M601.289 480.714l-9.044-13.551-30.01-11.11s-3.78 5.633 17.543 12.907l-3.703 5.9 3.64 10.687 11.99 3.434 1.963 3.184 7.62-11.451z"/>
      <polygon fill="#D02E27" points="589.409 490.96 603.772 478.569 610.644 485.776 596.496 498.551"/>
      <path fill="#FFF" d="M597.118 538.977l28.289 51.826-48.244.163-27.349-50.403c-.933-1.72.308-3.812 2.266-3.815l41.12-.091a4.458 4.458 0 0 1 3.918 2.32"/>
      <polygon fill="url(#home-I)" points="594.456 540.722 619.588 586.763 578.567 586.902 553.559 540.809"/>
      <path stroke="#FFF" stroke-linecap="round" stroke-linejoin="round" stroke-width=".333" d="M559.15 543.857h33.916m-32.127 3.191h11.394m5.234 0h4.682m2.251 0h4.682m-26.454 3.19h33.916m-32.128 3.19h33.917m-32.127 3.191h13.641m-11.853 3.191h5.994m3.532 0h5.993m3.228 0h5.994m3.227 0h5.993M569.883 563H603.8m-14.913 3.19h16.701m-32.127 3.19h33.916m-32.127 3.191h33.916m-32.127 3.191h33.916m-32.127 3.19h33.916m-32.127 3.191h33.916m-23.253-25.524h8.48"/>
      <path fill="#FEF0F0" d="M748.42 854.385c0 13.614-29.649 24.649-66.223 24.649-36.575 0-66.223-11.035-66.223-24.65 0-13.613 29.648-24.648 66.223-24.648 36.574 0 66.222 11.035 66.222 24.649"/>
      <polygon fill="#FFF" points="664.2 484.436 663.396 489.731 668.356 490.272 670.265 486.647"/>
      <path fill="#FFCDA9" d="M675.711 507.163v-7.95s-4.806.885-12.315-2.208v-7.274s3.241-.571 5.144-2.855l-5.144-1.906.955-3.809-4.154-2.395 6.63-11.316.571-6.666 4.19 2.857 1.903 12.189 2.22-4.761s3.945-2.15 5.398 1.713c1.236 3.286-.89 7.237-5.398 7.047l6.486 13.104 14.53.797v13.433H675.71z"/>
      <path fill="url(#home-J)" d="M706.52 454.588c.005.007 18.098 21.757-9.794 39.145l-4.779 4.537-9.75-5.338-6.486-13.103s4.924-.021 5.61-4.821c.619-4.329-3.71-4.997-5.61-3.94l-2.211 6.057-1.888-13.297c.001-.001-2.681-.76-9.973 1.93 0 0-.595-16.4 15.538-24.037l-5.564-.09s11.838-8.14 27.374 2.616l-2.263-5.567s10.455 3.543 9.796 15.907z"/>
      <path fill="#EA9C9F" d="M700.6 507.163s-10.784-6.386-28.473 0l-4.117 7.87 33.822-1.753-1.232-6.117z"/>
      <g transform="translate(668.593 507.476)">
        <mask id="home-L" fill="#fff">
          <use xlink:href="#home-K"/>
        </mask>
        <path fill="#D5787C" d="M.338 5.794S14.37-2.568 32.515 2.202l.725 3.604-21.33 1.102L.339 5.794z" mask="url(#home-L)"/>
      </g>
      <polygon fill="#FF7588" points="666.826 467.45 664.349 481.161 660.199 478.765"/>
      <path fill="url(#home-M)" d="M715.459 520.447s-18.735-19.55-57.511-3.8l-6.425 120.659h72.638s3.49-69.05-8.702-116.859"/>
      <path fill="#FFCDA9" d="M591.876 589.534l-11.452-10.938-.226 5.585-12.18-10.415s.447 16.2 17.245 23.187l6.613-7.42z"/>
      <path fill="#FFCDA9" d="M589.004 586.803l-6.192-7.065-6.196-7.062s-2.057 1.585-.595 4.455l4.163 7.05"/>
      <path fill="#EA9C9F" d="M657.947 516.648s-1.903 37.085-22.809 61.163c-19.163 22.07-36.846 14.089-36.846 14.089l-9.404 10.763s16.276 13.167 52.131-.484c28.591-10.89 31.908-48.518 31.908-48.518s4.534-32.164-14.98-37.013"/>
      <polygon fill="#D02E27" points="588.887 602.664 582.848 597.387 592.255 586.624 598.293 591.901"/>
      <path fill="#8D1714" d="M673.517 851.113v2.902c0 1.19-.964 2.154-2.154 2.154H627.91s6.05-11.158 27.099-11.871c11.077 2.126 18.508 6.815 18.508 6.815m65.103-4.231v4.314a2.634 2.634 0 0 1-2.633 2.634h-5.881c-.934 0-1.858-.17-2.728-.495l-23.966-9.035s6.422-7.452 20.682-2.713l14.527 5.295z"/>
      <path fill="url(#home-N)" fill-rule="nonzero" d="M724.16 637.304l3.492 115.016s2.513 6.407 5.495 17.72c6.848 25.999 5.748 77.728 5.748 77.728s-6.455 6.063-14.798-.828l-22.263-100.232L687.81 679.2l-9.267 65.166s5.712 15.037 3.19 40.903c-1.574 16.133-8.217 65.842-8.217 65.842s-12.249-.88-17.43-6.597l-4.563-119.568v-87.643h72.638z"/>
      <polygon fill="#D02E27" points="687.809 679.202 693.521 668.805 715.639 656.607 702.351 670.415 705.178 761.761"/>
      <polygon fill="#D02E27" points="651.523 637.304 724.412 645.596 724.162 637.304"/>
      <path fill="#FCCA93" d="M698.057 370.055a56.938 56.938 0 0 0 2.534-16.846c0-31.488-25.528-57.016-57.016-57.016-25.808 0-47.6 17.155-54.626 40.68-13.073 1.196-23.316 12.182-23.316 25.567 0 2.274.323 4.467.879 6.567l-2.83-.006c-10.461 1.003-18.717 9.877-18.717 20.589 0 11.379 9.31 20.689 20.689 20.689h70.608l23.471 23.473V410.28h31.615c11.379 0 20.688-9.31 20.688-20.69 0-9.028-5.872-16.734-13.98-19.534"/>
      <path fill="#FFF" d="M682.489 359.416c0 22.734-18.43 41.163-41.163 41.163-22.731 0-41.16-18.43-41.16-41.163 0-22.734 18.429-41.163 41.16-41.163 22.733 0 41.163 18.43 41.163 41.163"/>
      <path fill="#00DAFF" d="M603.092 344.3l4.42 1.497 1.95.882 1.493-1.842-1.544-5.673 1.979-2.885 3.226-4.794 13.74-2.887 2.704-2.804 2.644-1.966 3.688-1.48.855-3.843c-16.007 1.188-29.458 11.518-35.155 25.794"/>
      <path fill="url(#home-O)" fill-rule="nonzero" d="M682.403 356.873a38.74 38.74 0 0 0-.103-1.33c-.018-.226-.042-.45-.066-.676a36.13 36.13 0 0 0-.167-1.296 41.018 41.018 0 0 0-.396-2.347 40.672 40.672 0 0 0-.435-1.906c-.054-.214-.114-.423-.171-.634a36.48 36.48 0 0 0-.547-1.864 46.007 46.007 0 0 0-.369-1.087c-.078-.224-.157-.45-.238-.677a49.1 49.1 0 0 0-.508-1.287c-.105-.256-.214-.507-.323-.76a44.06 44.06 0 0 0-.55-1.218c-.12-.254-.247-.502-.371-.75a28.26 28.26 0 0 0-.438-.851 38.355 38.355 0 0 0-.87-1.559c-.157-.269-.314-.54-.48-.806-.142-.23-.287-.454-.436-.677a38.485 38.485 0 0 0-1.09-1.607c-.115-.163-.23-.332-.35-.492-.22-.3-.447-.596-.677-.886a31.046 31.046 0 0 0-1.115-1.374c-.117-.139-.238-.278-.356-.414-.272-.308-.54-.616-.819-.915-.036-.04-.072-.076-.105-.112a42.483 42.483 0 0 0-3.19-3.069c-.073-.06-.142-.124-.215-.184a37.003 37.003 0 0 0-1.253-1.027 41.194 41.194 0 0 0-5.126-3.447 42.825 42.825 0 0 0-1.41-.767c-.01-.006-.025-.012-.037-.018a40.83 40.83 0 0 0-5.888-2.483l-3.658 1.661.538 4.93 1.864-.722 1.773 1.157 2.613-.435-.245 2.758-1.767 3.9-3.703 1.954s1.818 3.616 3.73 3.214c1.915-.402 3.498-2.383 3.498-2.383l.09-2.369 2.608 1.215 1.595-.807.987 1.91 1.656.594 2.613-.432 1.048 1.073 2.543 1.465.988 1.909-3.45.371-4.217-2.171-8.886.81-4.368 3.27-5.525 5.042 2.848 5.162-1.413 5.589s5.836 5.947 11.557 4.627c5.718-1.32 6.135-.465 6.135-.465l1.794-.966.426 2.026.054 5.28 1.864 3.843-1.341 3.691 2.546 6.522-1.712 4.71.574.685a41.41 41.41 0 0 0 6.3-7.793l.034-.052a41 41 0 0 0 .976-1.655c.018-.033.039-.07.06-.103.3-.54.586-1.093.864-1.65.027-.054.057-.105.082-.16.265-.537.513-1.08.755-1.627.033-.079.072-.158.105-.236.227-.526.441-1.06.647-1.601.04-.103.081-.202.12-.305.194-.517.37-1.042.541-1.568.043-.127.091-.254.13-.383.16-.502.302-1.01.444-1.52.043-.157.09-.311.133-.471.127-.486.239-.982.348-1.474.042-.184.087-.366.126-.55.1-.477.182-.96.263-1.447.037-.205.079-.408.112-.613.073-.474.13-.958.187-1.44.024-.215.06-.43.082-.647.051-.508.084-1.018.118-1.529.015-.196.036-.393.045-.589a41.108 41.108 0 0 0 .006-4.078c-.009-.205-.024-.405-.036-.607"/>
      <path fill="url(#home-P)" fill-rule="nonzero" d="M638.247 318.38a40.931 40.931 0 0 0-19.112 6.377 41.351 41.351 0 0 0-7.621 6.295l-.016.016a41.203 41.203 0 0 0-8.406 13.106l4.42 1.496 1.95.885 1.493-1.843-1.544-5.673 1.979-2.888 3.226-4.79 13.74-2.888 2.704-2.803 2.644-1.967 3.688-1.483.855-3.84z"/>
      <path fill="url(#home-Q)" fill-rule="nonzero" d="M621.24 394.76l3.694-3.129 2.789-7.993 4.262-2.66s1.489-2.43 1.561-6.562c0 0 2.571-2.301 1.958-5.232l-6.975-2.413-2.265-2.936-1.242-2.559-6.948-1.715-1.89-1.72-3.68-.168-1.386-1 1.208-.96-1.574.331-1.39 1.233-1.183 1.072-2.55.181-2.76-.83-1.043-4.954 1.417-2.767-.994-2.498-.341.072v.003a41.548 41.548 0 0 0-.946 3.776c-.009.055-.018.112-.03.166a48.074 48.074 0 0 0-.308 1.77c-.024.17-.042.345-.066.514-.067.492-.136.985-.185 1.483.43.453.493.74.493.74l1.58 2.49 3.201 2.914-1.585 4.764-.72 3.304s.759 5.84 7.012 8.168l.567 2.704s.396 1.329 1.819 1.38l-.275 6.528s.012.233.067.562h.003c.616.607 1.256 1.19 1.909 1.755.048.04.096.085.148.124a41.37 41.37 0 0 0 4.25 3.19c.012.006.024.012.033.02.752.49 1.52.958 2.302 1.396v.003l.063-.546z"/>
      <path fill="#FCCA93" d="M43.807 400.712a8.733 8.733 0 0 0-8.733 8.733c0 4.821 3.912 8.73 8.733 8.73 4.821 0 8.733-3.909 8.733-8.73a8.733 8.733 0 0 0-8.733-8.733m17.34-8.128c-15.29-12.37-31.038-5.338-37.227.112a4.17 4.17 0 1 0 5.51 6.262c.513-.454 12.774-10.972 26.47.111a4.172 4.172 0 0 0 5.247-6.485m21.154-27.996c-42-29.2-79.275-.117-79.646.182a4.518 4.518 0 0 0-.704 6.352 4.517 4.517 0 0 0 6.35.704c.32-.254 32.318-25.21 68.84.181a4.515 4.515 0 0 0 6.29-1.13 4.518 4.518 0 0 0-1.13-6.289"/>
      <path fill="#FCCA93" d="M71.959 377.479c-31.065-21.601-58.686-.043-58.961.18a4.512 4.512 0 0 0-.71 6.335 4.523 4.523 0 0 0 6.343.731c.919-.722 22.746-17.505 48.168.172a4.515 4.515 0 0 0 6.29-1.13 4.518 4.518 0 0 0-1.13-6.288"/>
      <path fill="url(#home-R)" fill-rule="nonzero" d="M390.79 607.664h60.733a7.281 7.281 0 0 0 7.283-7.283v-29.618a7.284 7.284 0 0 0-7.283-7.286H390.79a7.284 7.284 0 0 0-7.283 7.286v29.618a7.281 7.281 0 0 0 7.283 7.283"/>
      <path fill="url(#home-S)" fill-rule="nonzero" d="M386.131 565.505c1.39-1.247 3.208-2.026 5.22-2.026h59.61c2.166 0 4.13.879 5.55 2.298l-35.056 35.052-35.324-35.324z"/>
      <path fill="#E3F9FF" d="M428.97 593.317h-15.03l-20.857-20.858v-40.112a4.324 4.324 0 0 1 4.325-4.323h46.721a4.324 4.324 0 0 1 4.326 4.323v41.483l-19.487 19.487z"/>
      <path fill="#D5D5D5" d="M448.454 552.583L432.2 567.037l-3.873-4.175c-1.202-1.296-3.144-1.471-4.337-.408l-12.98 11.536-4.265-4.597c-1.197-1.293-3.139-1.471-4.338-.408l-6.772 6.023 4.515 4.516 4.426-3.933 4.265 4.595c1.2 1.293 3.141 1.477 4.34.41l12.978-11.536 3.872 4.172c1.202 1.299 3.145 1.474 4.338.41l14.085-12.523v-8.536z"/>
      <path fill="url(#home-T)" d="M466.415 533.044a3.02 3.02 0 0 0-4.269 0l-30.536 30.537-3.812-3.806a3.016 3.016 0 0 0-4.268 0l-12.768 12.762-4.196-4.193a3.02 3.02 0 0 0-4.268 0l-6.664 6.667c1.317 1.314 2.779 2.776 4.268 4.265l4.528-4.53 4.199 4.192a3.014 3.014 0 0 0 4.268 0l12.766-12.763 3.812 3.81a3.02 3.02 0 0 0 4.268 0l32.672-32.672a3.02 3.02 0 0 0 0-4.269"/>
      <path fill="#FCCA93" d="M470.233 544.895a3.02 3.02 0 0 1-5.153-2.133l.003-9.192h-7.724a3.017 3.017 0 1 1 0-6.035h10.742a3.018 3.018 0 0 1 3.017 3.018v12.21a3.01 3.01 0 0 1-.885 2.132"/>
      <path fill="url(#home-U)" fill-rule="nonzero" d="M412.678 535.1H397.32a.746.746 0 0 1-.743-.742c0-.408.336-.744.743-.744h15.358c.407 0 .743.336.743.744a.746.746 0 0 1-.743.743m0 5.621H397.32a.746.746 0 0 1-.743-.743c0-.408.336-.743.743-.743h15.358c.407 0 .743.335.743.743a.746.746 0 0 1-.743.743m0 9.495H397.32a.746.746 0 0 1-.743-.744c0-.407.336-.743.743-.743h15.358c.407 0 .743.336.743.743a.746.746 0 0 1-.743.744"/>
      <path fill="url(#home-V)" fill-rule="nonzero" d="M442.098 550.217h-25.6a.744.744 0 0 1-.744-.744c0-.407.332-.743.743-.743h25.6c.408 0 .744.336.744.743a.746.746 0 0 1-.743.744"/>
      <path fill="url(#home-W)" fill-rule="nonzero" d="M428.926 555.992h-12.43a.746.746 0 0 1-.744-.743c0-.408.336-.743.743-.743h12.43c.408 0 .744.335.744.743a.746.746 0 0 1-.743.743"/>
      <path fill="url(#home-U)" fill-rule="nonzero" d="M412.678 555.992H397.32a.746.746 0 0 1-.743-.743c0-.408.336-.743.743-.743h15.358c.407 0 .743.335.743.743a.746.746 0 0 1-.743.743"/>
      <path fill="#FA6854" d="M456.51 605.365a7.826 7.826 0 0 1-5.55 2.299h-59.607c-2.607 0-4.896-1.284-6.325-3.238l31.183-19.224a9.13 9.13 0 0 1 9.802.14l30.497 20.023z"/>
      <path fill="#FCCA93" d="M412.2 169.498c0 28.258 22.91 51.167 51.168 51.167s51.164-22.909 51.164-51.167c0-28.259-22.906-51.168-51.164-51.168-28.259 0-51.168 22.909-51.168 51.168"/>
      <path fill="#FFF" d="M456.62 164.497a2.486 2.486 0 0 1-2.489-2.49c0-4.7-3.824-8.52-8.521-8.52-4.697 0-8.518 3.82-8.518 8.52a2.487 2.487 0 0 1-2.49 2.49 2.488 2.488 0 0 1-2.491-2.49c0-7.445 6.056-13.502 13.499-13.502 7.443 0 13.5 6.057 13.5 13.503a2.487 2.487 0 0 1-2.49 2.489m35.513 0a2.486 2.486 0 0 1-2.49-2.49c0-4.7-3.824-8.52-8.52-8.52-4.698 0-8.52 3.82-8.52 8.52a2.487 2.487 0 0 1-2.488 2.49 2.488 2.488 0 0 1-2.492-2.49c0-7.445 6.056-13.502 13.5-13.502 7.442 0 13.499 6.057 13.499 13.503a2.487 2.487 0 0 1-2.49 2.489"/>
      <path fill="url(#home-X)" fill-rule="nonzero" d="M463.367 203.157c14.345 0 25.978-11.63 25.978-25.978h-51.953c0 14.348 11.63 25.978 25.975 25.978"/>
      <path fill="#FFF" d="M439.336 187.029h48.062a25.868 25.868 0 0 0 1.946-9.848H437.39c0 3.486.698 6.809 1.945 9.848"/>
      <path fill="url(#home-Y)" d="M361.7 382.736c0 17.438 14.137 31.578 31.578 31.578 17.439 0 31.578-14.14 31.578-31.578 0-17.439-14.14-31.579-31.578-31.579-17.441 0-31.578 14.14-31.578 31.579"/>
      <path fill="#FFF" d="M389.114 379.649a1.536 1.536 0 0 1-1.537-1.537c0-2.9-2.36-5.26-5.256-5.26-2.9 0-5.26 2.36-5.26 5.26 0 .851-.685 1.537-1.537 1.537a1.533 1.533 0 0 1-1.535-1.537c0-4.595 3.737-8.332 8.332-8.332 4.591 0 8.33 3.737 8.33 8.332 0 .851-.688 1.537-1.537 1.537m21.916 0a1.536 1.536 0 0 1-1.537-1.537c0-2.9-2.36-5.26-5.256-5.26-2.9 0-5.26 2.36-5.26 5.26 0 .851-.685 1.537-1.537 1.537a1.533 1.533 0 0 1-1.534-1.537c0-4.595 3.736-8.332 8.33-8.332 4.592 0 8.332 3.737 8.332 8.332 0 .851-.689 1.537-1.538 1.537m-6.82 4.883a2.947 2.947 0 0 0-2.945 2.945c0 4.405-3.582 7.987-7.987 7.987-4.404 0-7.986-3.582-7.986-7.987a2.945 2.945 0 1 0-5.89 0c0 7.652 6.225 13.878 13.876 13.878 7.652 0 13.877-6.226 13.877-13.878a2.947 2.947 0 0 0-2.945-2.945m-28.548-24.692l.028-.015-4.384-11.741c-.52-1.393-2.489-1.399-3.017-.006l-4.833 12.795.03.01c-.547 1.576-.662 3.355.55 5.382 1.184 1.982 3.229 3.432 5.537 3.51a6.714 6.714 0 0 0 6.947-6.712c0-1.175-.326-2.262-.858-3.223m107.187 49.352a2.649 2.649 0 1 1-5.3.001 2.649 2.649 0 0 1 5.3-.001m8.994 0a2.649 2.649 0 1 1-5.3.001 2.649 2.649 0 0 1 5.3-.001"/>
      <path fill="url(#home-Z)" d="M394.155 773.298h-10.986l-5.302-8.479c-1.558-2.492.013-4.513 3.504-4.513h4.661l8.123 12.992z"/>
      <path fill="url(#home-aa)" fill-rule="nonzero" d="M406.848 758.226H393.31l.35-1.535c.064-.284.028-.598-.105-.927l-1.55-3.8c-.564-1.38-2.697-2.673-4.77-2.888-2.071-.208-3.286.731-2.724 2.112l1.347 3.304-1.087 4.785c-.127.559.142 1.19.67 1.782l6.278 10.044c1.238 1.978 4.488 3.582 7.264 3.582h12.633c2.616 0 3.79-1.513 2.625-3.38l-4.791-7.663h.785c2.097 0 3.036-1.211 2.103-2.71-.937-1.495-3.392-2.706-5.489-2.706"/>
      <path fill="#FFF" d="M255.94 762.998c-2.057-3.803-7.156-6.884-11.388-6.884-2.407 0-3.978 1.018-4.537 2.58-2.25-1.562-4.924-2.58-7.334-2.58-4.23 0-5.993 3.08-3.936 6.884 1.196 2.211 3.428 4.153 5.911 5.413v.024l.257.112c.236.115.471.217.713.32l13.043 5.82 6.742-5.82c.13-.103.257-.205.369-.32l.133-.112-.024-.024c1.12-1.26 1.247-3.202.051-5.413m34.172 0c-2.057-3.803-7.156-6.884-11.388-6.884-2.407 0-3.978 1.018-4.537 2.58-2.25-1.562-4.923-2.58-7.334-2.58-4.229 0-5.993 3.08-3.936 6.884 1.196 2.211 3.429 4.153 5.912 5.413l.003.024.253.112c.236.115.472.217.713.32l13.044 5.82 6.742-5.82c.13-.103.257-.205.368-.32l.133-.112-.024-.024c1.12-1.26 1.248-3.202.051-5.413m34.173 0c-2.057-3.803-7.156-6.884-11.388-6.884-2.408 0-3.979 1.018-4.54 2.58-2.248-1.562-4.921-2.58-7.332-2.58-4.229 0-5.993 3.08-3.936 6.884 1.197 2.211 3.429 4.153 5.912 5.413l.003.024.254.112c.235.115.47.217.712.32l13.044 5.82 6.742-5.82c.13-.103.257-.205.369-.32l.132-.112-.024-.024c1.12-1.26 1.248-3.202.052-5.413"/>
    </g>
    <path fill="#FCCA93" d="M543.656 335.9c8.832-28.83 20.824-56.581 37.015-82.197-8.6-11.545-22.28-19.075-37.785-19.075-21.366 0-39.408 14.2-45.223 33.674-10.823.994-19.305 10.086-19.305 21.17 0 1.881.268 3.697.728 5.434l-2.342-.004c-8.663.831-15.496 8.177-15.496 17.046 0 9.419 7.706 17.125 17.128 17.125h58.453l6.827 6.826z"/>
    <g fill-rule="nonzero">
      <path fill="url(#home-ab)" d="M40.947 21.461l1.883-4.911a1.343 1.343 0 0 0-.408-1.524l-4.083-3.31-.826-5.195a1.34 1.34 0 0 0-1.116-1.113l-5.195-.826L27.895.496A1.343 1.343 0 0 0 26.374.09L21.46 1.974 16.549.091A1.338 1.338 0 0 0 15.028.5l-3.31 4.085-5.196.826A1.344 1.344 0 0 0 5.41 6.524l-.826 5.195-4.085 3.31c-.45.365-.614.979-.408 1.52l1.883 4.912L.09 26.372a1.338 1.338 0 0 0 .408 1.521L4.583 31.2l.826 5.196a1.34 1.34 0 0 0 1.113 1.116l5.196.826 3.31 4.082c.367.456.982.617 1.523.408l4.909-1.88 4.911 1.883a1.347 1.347 0 0 0 1.524-.41l3.307-4.083 5.195-.826a1.344 1.344 0 0 0 1.116-1.116l.826-5.196 4.083-3.307a1.34 1.34 0 0 0 .408-1.52l-1.883-4.912z" transform="translate(497 273)"/>
      <path fill="#FAFAFA" d="M514.437 291.779a4.028 4.028 0 0 1-4.024-4.024 4.028 4.028 0 0 1 4.024-4.023 4.028 4.028 0 0 1 4.023 4.023 4.028 4.028 0 0 1-4.023 4.024zm0-5.365a1.342 1.342 0 1 0 0 2.683 1.342 1.342 0 0 0 0-2.683zm8.046 18.776a4.028 4.028 0 0 1-4.023-4.023 4.028 4.028 0 0 1 4.023-4.024 4.028 4.028 0 0 1 4.024 4.024 4.028 4.028 0 0 1-4.024 4.023zm0-5.364c-.737 0-1.34.603-1.34 1.34 0 .738.603 1.342 1.34 1.342.738 0 1.341-.604 1.341-1.341 0-.738-.603-1.341-1.34-1.341zm-10.729 5.364a1.34 1.34 0 0 1-1.089-2.122l13.412-18.775a1.34 1.34 0 1 1 2.183 1.558l-13.411 18.776a1.347 1.347 0 0 1-1.095.563z"/>
    </g>
  </g>
</svg>
